<svg width="36" height="36" viewBox="0 0 36 36" fill="none" xmlns="http://www.w3.org/2000/svg">
<rect width="36" height="36" rx="4" fill="#DCFFF1"/>
<path fill-rule="evenodd" clip-rule="evenodd" d="M21.0097 10.5H14.9905C13.361 10.5 11.9704 11.678 11.7025 13.2853L10.3136 21.6187C9.97501 23.6504 11.5418 25.5 13.6016 25.5H18.0001C18.4603 25.5 18.8334 25.1269 18.8334 24.6667V22.1667C18.8334 20.3257 20.3258 18.8333 22.1667 18.8333H24.2386C24.7535 18.8333 25.1452 18.3709 25.0606 17.863L24.2976 13.2853C24.0298 11.678 22.6391 10.5 21.0097 10.5ZM21.125 13.8333C21.125 15.5592 19.7259 16.9583 18 16.9583C16.2741 16.9583 14.875 15.5592 14.875 13.8333V13C14.875 12.6548 15.1548 12.375 15.5 12.375C15.8452 12.375 16.125 12.6548 16.125 13V13.8333C16.125 14.8689 16.9645 15.7083 18 15.7083C19.0355 15.7083 19.875 14.8689 19.875 13.8333V13C19.875 12.6548 20.1548 12.375 20.5 12.375C20.8452 12.375 21.125 12.6548 21.125 13V13.8333ZM26.8037 20.9116C27.031 20.6518 27.0047 20.2569 26.7449 20.0296C26.4851 19.8023 26.0903 19.8287 25.863 20.0884L23.4714 22.8217C23.398 22.9056 23.2715 22.9168 23.1845 22.8472L21.7238 21.6786C21.4543 21.463 21.0609 21.5067 20.8453 21.7762C20.6297 22.0458 20.6734 22.4391 20.9429 22.6547L22.4036 23.8233C23.013 24.3108 23.8982 24.2321 24.4121 23.6448L26.8037 20.9116Z" fill="#00CF7E"/>
</svg>
