<svg width="25" height="24" viewBox="0 0 25 24" fill="none" xmlns="http://www.w3.org/2000/svg">
<path d="M15.5 13.5C15.5 15.1569 14.1569 16.5 12.5 16.5C10.8431 16.5 9.5 15.1569 9.5 13.5C9.5 11.8431 10.8431 10.5 12.5 10.5C14.1569 10.5 15.5 11.8431 15.5 13.5Z" stroke="white" stroke-width="1.5" stroke-linecap="round"/>
<circle cx="12.5" cy="7" r="1" fill="white"/>
<path d="M21.5 15.5V11.5C21.5 8.73858 19.2614 6.5 16.5 6.5H16.374C15.9299 4.77477 14.3638 3.5 12.5 3.5C10.6362 3.5 9.07006 4.77477 8.62602 6.5H8.5C5.73858 6.5 3.5 8.73858 3.5 11.5V15.5C3.5 18.2614 5.73858 20.5 8.5 20.5H16.5C19.2614 20.5 21.5 18.2614 21.5 15.5Z" stroke="white" stroke-width="1.5" stroke-linecap="round" stroke-linejoin="round"/>
</svg>
