<svg width="36" height="36" viewBox="0 0 36 36" fill="none" xmlns="http://www.w3.org/2000/svg">
<rect width="36" height="36" rx="4" fill="#E7EBFF"/>
<path fill-rule="evenodd" clip-rule="evenodd" d="M21.0097 10.5H14.9905C13.361 10.5 11.9704 11.678 11.7025 13.2853L10.3136 21.6187C9.97501 23.6504 11.5418 25.5 13.6016 25.5H18.0001C18.4603 25.5 18.8334 25.1269 18.8334 24.6667V22.1667C18.8334 20.3257 20.3258 18.8333 22.1667 18.8333H24.2386C24.7535 18.8333 25.1452 18.3709 25.0606 17.863L24.2976 13.2853C24.0298 11.678 22.6391 10.5 21.0097 10.5ZM21.125 13.8333C21.125 15.5592 19.7259 16.9583 18 16.9583C16.2741 16.9583 14.875 15.5592 14.875 13.8333V13C14.875 12.6548 15.1548 12.375 15.5 12.375C15.8452 12.375 16.125 12.6548 16.125 13V13.8333C16.125 14.8689 16.9645 15.7083 18 15.7083C19.0355 15.7083 19.875 14.8689 19.875 13.8333V13C19.875 12.6548 20.1548 12.375 20.5 12.375C20.8452 12.375 21.125 12.6548 21.125 13V13.8333ZM23.2144 21.1294L23.4353 20.9085C24.0455 20.2983 25.0349 20.2983 25.6451 20.9085C26.2552 21.5187 26.2552 22.508 25.6451 23.1182L24.0983 24.665C23.6101 25.1531 22.8186 25.1531 22.3305 24.665L20.7837 23.1182C20.1735 22.508 20.1735 21.5187 20.7837 20.9085C21.3939 20.2983 22.3832 20.2983 22.9934 20.9085L23.2144 21.1294Z" fill="#335CFF"/>
</svg>
