<svg width="25" height="24" viewBox="0 0 25 24" fill="none" xmlns="http://www.w3.org/2000/svg">
<path fill-rule="evenodd" clip-rule="evenodd" d="M14.625 7C14.625 9.20914 12.8341 11 10.625 11C8.41586 11 6.625 9.20914 6.625 7C6.625 4.79086 8.41586 3 10.625 3C12.8341 3 14.625 4.79086 14.625 7ZM17.625 17C17.625 19.2091 14.491 21 10.625 21C6.75901 21 3.625 19.2091 3.625 17C3.625 14.7909 6.75901 13 10.625 13C14.491 13 17.625 14.7909 17.625 17ZM16.625 9.25C16.2108 9.25 15.875 9.58579 15.875 10C15.875 10.4142 16.2108 10.75 16.625 10.75H22.625C23.0392 10.75 23.375 10.4142 23.375 10C23.375 9.58579 23.0392 9.25 22.625 9.25H16.625ZM19.1964 13.25C18.7822 13.25 18.4464 13.5858 18.4464 14C18.4464 14.4142 18.7822 14.75 19.1964 14.75H22.625C23.0392 14.75 23.375 14.4142 23.375 14C23.375 13.5858 23.0392 13.25 22.625 13.25H19.1964Z" fill="#F9C200"/>
</svg>
