<svg width="37" height="36" viewBox="0 0 37 36" fill="none" xmlns="http://www.w3.org/2000/svg">
<rect x="0.5" width="36" height="36" rx="4" fill="white"/>
<path fill-rule="evenodd" clip-rule="evenodd" d="M21.5097 10.5H15.4905C13.861 10.5 12.4704 11.678 12.2025 13.2853L10.8136 21.6187C10.475 23.6504 12.0418 25.5 14.1016 25.5H18.5001C18.9603 25.5 19.3334 25.1269 19.3334 24.6667V22.1667C19.3334 20.3257 20.8258 18.8333 22.6667 18.8333H24.7386C25.2535 18.8333 25.6452 18.3709 25.5606 17.863L24.7976 13.2853C24.5298 11.678 23.1391 10.5 21.5097 10.5ZM21.625 13.8333C21.625 15.5592 20.2259 16.9583 18.5 16.9583C16.7741 16.9583 15.375 15.5592 15.375 13.8333V13C15.375 12.6548 15.6548 12.375 16 12.375C16.3452 12.375 16.625 12.6548 16.625 13V13.8333C16.625 14.8689 17.4645 15.7083 18.5 15.7083C19.5355 15.7083 20.375 14.8689 20.375 13.8333V13C20.375 12.6548 20.6548 12.375 21 12.375C21.3452 12.375 21.625 12.6548 21.625 13V13.8333ZM25.7097 21.6742C25.9538 21.4301 25.9538 21.0344 25.7097 20.7903C25.4656 20.5462 25.0699 20.5462 24.8258 20.7903L23.5 22.1161L22.1742 20.7903C21.9301 20.5462 21.5344 20.5462 21.2903 20.7903C21.0462 21.0344 21.0462 21.4301 21.2903 21.6742L22.6161 23L21.2903 24.3258C21.0462 24.5699 21.0462 24.9656 21.2903 25.2097C21.5344 25.4538 21.9301 25.4538 22.1742 25.2097L23.5 23.8839L24.8258 25.2097C25.0699 25.4538 25.4656 25.4538 25.7097 25.2097C25.9538 24.9656 25.9538 24.5699 25.7097 24.3258L24.3839 23L25.7097 21.6742Z" fill="#F98C3B"/>
</svg>
