<svg width="21" height="20" viewBox="0 0 21 20" fill="none" xmlns="http://www.w3.org/2000/svg">
<path fill-rule="evenodd" clip-rule="evenodd" d="M20.125 4V6.25C20.125 8.32107 18.6326 10 16.7917 10C14.9507 10 13.4583 8.32107 13.4583 6.25C13.4583 8.32107 11.9659 10 10.125 10C8.28405 10 6.79167 8.32107 6.79167 6.25C6.79167 8.32107 5.29928 10 3.45833 10C1.61738 10 0.125 8.32107 0.125 6.25V4C0.125 1.79086 1.91586 0 4.125 0H16.125C18.3341 0 20.125 1.79086 20.125 4ZM16.7917 11.4999C15.4545 11.4999 14.3022 10.9373 13.4583 10.0559C12.6145 10.9373 11.4621 11.4999 10.125 11.4999C8.78788 11.4999 7.63549 10.9373 6.79167 10.0559C5.94785 10.9373 4.79546 11.4999 3.45833 11.4999C2.59172 11.4999 1.8027 11.2636 1.125 10.8573V15.9999C1.125 18.2091 2.91586 19.9999 5.125 19.9999H15.125C17.3341 19.9999 19.125 18.2091 19.125 15.9999V10.8573C18.4473 11.2636 17.6583 11.4999 16.7917 11.4999ZM13.7783 15.6317C13.9817 15.9925 13.8542 16.4499 13.4933 16.6533C12.2782 17.3384 11.2315 17.7479 10.1278 17.75C9.02281 17.7521 7.9741 17.3459 6.75415 16.6519C6.39412 16.4471 6.26829 15.9892 6.4731 15.6292C6.67792 15.2691 7.13582 15.1433 7.49585 15.3481C8.63205 15.9945 9.40712 16.2514 10.1249 16.25C10.8441 16.2486 11.6194 15.9879 12.7567 15.3467C13.1175 15.1433 13.5749 15.2708 13.7783 15.6317Z" fill="#E94222"/>
</svg>
