<svg width="37" height="36" viewBox="0 0 37 36" fill="none" xmlns="http://www.w3.org/2000/svg">
<rect x="0.5" width="36" height="36" rx="4" fill="#F6E4E1"/>
<path fill-rule="evenodd" clip-rule="evenodd" d="M15.4905 10.5H21.5097C23.1391 10.5 24.5298 11.678 24.7976 13.2853L26.1865 21.6187C26.5252 23.6504 24.9583 25.5 22.8985 25.5H14.1016C12.0418 25.5 10.475 23.6504 10.8136 21.6187L12.2025 13.2853C12.4704 11.678 13.861 10.5 15.4905 10.5ZM18.5001 16.9583C20.226 16.9583 21.6251 15.5592 21.6251 13.8333V13C21.6251 12.6548 21.3453 12.375 21.0001 12.375C20.6549 12.375 20.3751 12.6548 20.3751 13V13.8333C20.3751 14.8689 19.5356 15.7083 18.5001 15.7083C17.4645 15.7083 16.6251 14.8689 16.6251 13.8333V13C16.6251 12.6548 16.3453 12.375 16.0001 12.375C15.6549 12.375 15.3751 12.6548 15.3751 13V13.8333C15.3751 15.5592 16.7742 16.9583 18.5001 16.9583Z" fill="#E94222"/>
</svg>
