<svg width="26" height="24" viewBox="0 0 26 24" fill="none" xmlns="http://www.w3.org/2000/svg">
<path d="M19.3462 3H6.80769C4.49942 3 2.6282 4.79086 2.6282 7C2.6282 9.20914 4.49942 11 6.80769 11L19.3461 11C21.6544 11 23.5256 9.20914 23.5256 7C23.5256 4.79086 21.6544 3 19.3462 3Z" fill="#F01543"/>
<path opacity="0.4" d="M19.3462 19L19.3462 7H6.80769V19C6.80769 20.1046 7.7433 21 8.89744 21H17.2564C18.4105 21 19.3462 20.1046 19.3462 19Z" fill="#F01543"/>
<path fill-rule="evenodd" clip-rule="evenodd" d="M12.2933 15.1895L11.5413 14.4698C11.2353 14.1769 10.7391 14.1769 10.433 14.4698C10.127 14.7627 10.127 15.2376 10.433 15.5305L11.784 16.8234C12.498 17.5068 13.6558 17.5068 14.3699 16.8234L15.7208 15.5305C16.0268 15.2376 16.0268 14.7627 15.7208 14.4698C15.4148 14.1769 14.9186 14.1769 14.6125 14.4698L13.8606 15.1895V11.0002C13.8606 10.5859 13.5097 10.2502 13.0769 10.2502C12.6441 10.2502 12.2933 10.5859 12.2933 11.0002V15.1895Z" fill="#F01543"/>
</svg>
